<svg width="24" height="24" viewBox="0 0 24 24" fill="none" xmlns="http://www.w3.org/2000/svg">
<path fill-rule="evenodd" clip-rule="evenodd" d="M9.92228 21.8083C6.10828 21.8083 2.85028 21.2313 2.85028 18.9213C2.85028 16.6113 6.08728 14.5103 9.92228 14.5103C13.7363 14.5103 16.9943 16.5913 16.9943 18.9003C16.9943 21.2093 13.7573 21.8083 9.92228 21.8083Z" stroke="white" stroke-width="1.5" stroke-linecap="round" stroke-linejoin="round"/>
<path fill-rule="evenodd" clip-rule="evenodd" d="M9.92225 11.216C12.4253 11.216 14.4553 9.18599 14.4553 6.68299C14.4553 4.17899 12.4253 2.14999 9.92225 2.14999C7.41925 2.14999 5.38925 4.17899 5.38925 6.68299C5.38025 9.17699 7.39625 11.207 9.89025 11.216H9.92225Z" stroke="white" stroke-width="1.5" stroke-linecap="round" stroke-linejoin="round"/>
<path d="M19.1313 8.12909V12.1391" stroke="white" stroke-width="1.5" stroke-linecap="round" stroke-linejoin="round"/>
<path d="M21.1776 10.1339H17.0876" stroke="white" stroke-width="1.5" stroke-linecap="round" stroke-linejoin="round"/>
</svg>
