<svg width="13" height="15" viewBox="0 0 13 15" fill="none" xmlns="http://www.w3.org/2000/svg">
<path d="M10.9378 9.7893C11.0882 9.64649 11.2896 9.56746 11.4986 9.56925C11.7077 9.57104 11.9077 9.65349 12.0555 9.79885C12.2033 9.94421 12.2872 10.1408 12.289 10.3464C12.2908 10.552 12.2104 10.75 12.0652 10.8979L9.52816 13.3925C8.48143 14.4218 7.06176 15 5.58146 15C4.10117 15 2.6815 14.4218 1.63477 13.3925C0.588045 12.3633 0 10.9673 0 9.51176C0 8.05619 0.588045 6.66024 1.63477 5.63099L6.14596 1.19672C6.51371 0.822324 6.9536 0.523692 7.43998 0.31825C7.92635 0.112808 8.44947 0.00467093 8.9788 0.000148005C9.50813 -0.00437492 10.0331 0.0948069 10.523 0.291907C11.0129 0.489006 11.4581 0.780076 11.8324 1.14813C12.2067 1.51619 12.5027 1.95386 12.7031 2.43561C12.9036 2.91736 13.0044 3.43354 12.9998 3.95403C12.9952 4.47452 12.8853 4.9889 12.6763 5.46715C12.4674 5.94541 12.1637 6.37795 11.783 6.73956L7.27336 11.1754C6.82475 11.6165 6.2163 11.8643 5.58186 11.8643C4.94743 11.8643 4.33898 11.6165 3.89037 11.1754C3.44175 10.7343 3.18973 10.136 3.18973 9.51215C3.18973 8.88832 3.44175 8.29003 3.89037 7.84891L7.55481 4.24567C7.62884 4.17283 7.71673 4.11504 7.81347 4.0756C7.91021 4.03616 8.0139 4.01584 8.11862 4.0158C8.22335 4.01577 8.32706 4.03601 8.42383 4.07539C8.52059 4.11476 8.60853 4.17249 8.68261 4.24528C8.75668 4.31807 8.81546 4.4045 8.85557 4.49962C8.89568 4.59474 8.91634 4.6967 8.91638 4.79968C8.91642 4.90266 8.89583 5.00463 8.85578 5.09978C8.81574 5.19493 8.75703 5.2814 8.683 5.35424L5.01777 8.95748C4.94374 9.03032 4.88503 9.11678 4.84499 9.21194C4.80494 9.30709 4.78435 9.40906 4.78439 9.51204C4.78443 9.61502 4.80509 9.71698 4.8452 9.8121C4.88531 9.90722 4.94409 9.99365 5.01816 10.0664C5.09224 10.1392 5.18018 10.197 5.27694 10.2363C5.37371 10.2757 5.47742 10.296 5.58214 10.2959C5.68687 10.2959 5.79056 10.2756 5.8873 10.2361C5.98404 10.1967 6.07193 10.1389 6.14596 10.066L10.6556 5.63099C10.884 5.41403 11.0662 5.1545 11.1916 4.86755C11.3169 4.5806 11.3829 4.27197 11.3857 3.95968C11.3885 3.64738 11.3279 3.33767 11.2077 3.04862C11.0874 2.75957 10.9098 2.49697 10.6852 2.27614C10.4606 2.0553 10.1936 1.88066 9.89959 1.7624C9.60563 1.64414 9.29066 1.58463 8.97306 1.58734C8.65547 1.59006 8.34159 1.65494 8.04977 1.77821C7.75794 1.90147 7.49401 2.08065 7.27336 2.30529L2.76297 6.74034C2.3851 7.10265 2.08416 7.53512 1.8776 8.01268C1.67104 8.49024 1.56297 9.00338 1.55966 9.52233C1.55636 10.0413 1.65788 10.5557 1.85834 11.0358C2.0588 11.5158 2.3542 11.952 2.72742 12.3189C3.10064 12.6859 3.54424 12.9763 4.03249 13.1733C4.52074 13.3704 5.04392 13.4701 5.57169 13.4668C6.09945 13.4635 6.62129 13.3571 7.10693 13.1539C7.59257 12.9508 8.03235 12.6548 8.40076 12.2832L10.9378 9.7893Z" fill="#BE7A3A"/>
</svg>
