<svg width="37" height="38" viewBox="0 0 37 38" fill="none" xmlns="http://www.w3.org/2000/svg">
<path d="M4.05265 11.5943C4.05265 11.5943 8.96513 3.48123 14.877 3.38748C20.7888 3.29373 24.7919 7.63246 26.8825 14.3299C28.975 21.0274 34.1594 19.4243 35.5225 24.7999C36.8875 30.1774 15.3307 37.8179 4.87015 30.9311C-5.58855 24.0461 4.05265 11.5943 4.05265 11.5943Z" fill="#F0D0C7" fill-opacity="0.66"/>
<path d="M23.9165 15.0854C23.9165 15.0854 25.0808 16.1486 25.9939 19.5423C26.9052 22.9342 27.2089 26.9354 28.7277 27.9479C30.2464 28.9604 32.4739 27.5935 33.8427 29.416C35.2095 31.2385 32.8302 33.2635 31.5139 33.6179C30.1977 33.9722 27.4639 34.5797 24.8802 32.8585C22.2965 31.1354 23.9165 15.0854 23.9165 15.0854Z" fill="#152D40"/>
<path d="M25.4349 32.9597H7.10498C7.10498 32.9597 7.45935 15.1867 9.28185 14.4273C11.1062 13.6679 14.2956 12.1492 14.2956 12.1492L19.613 12.8073C19.613 12.8073 23.1062 13.6679 23.9162 15.0854C24.1243 15.4492 24.3249 16.7973 24.5087 18.6048C24.6399 19.8929 24.7618 21.4154 24.8724 22.9772C25.2118 27.7772 25.4349 32.9597 25.4349 32.9597Z" fill="#2867A4"/>
<path d="M14.9802 9.1604L14.9033 11.5904C14.9033 11.5904 17.0296 13.3379 18.4227 13.261C19.8158 13.1841 19.6133 12.8054 19.6133 12.8054L19.6395 11.1085C19.6377 11.1104 16.2964 9.18478 14.9802 9.1604Z" fill="#C17638"/>
<path d="M22.2884 8.30743C22.1366 10.8893 20.7134 11.5155 19.4985 11.8962C18.2872 12.2749 16.0578 11.1818 15.2535 9.82054C15.2516 9.81679 15.2497 9.81117 15.246 9.80742C15.2066 9.73992 15.1691 9.67054 15.1353 9.60117H15.1316C14.4622 8.2793 14.5991 6.78118 14.5991 6.78118C14.5991 6.78118 14.5616 5.92056 14.6047 4.90807C14.6497 3.89557 14.7772 2.7312 15.1053 2.1237C15.7653 0.90871 17.751 0.616211 18.6247 0.616211C19.4985 0.616211 21.1691 1.26121 21.8534 2.17245C22.5359 3.0837 22.3334 7.54618 22.2884 8.30743Z" fill="#E1964F"/>
<path d="M14.618 4.6416C14.618 4.6416 13.9336 4.6791 13.5736 5.38222C13.2136 6.08534 13.478 7.67909 14.7324 7.85159C15.9849 8.02034 14.618 4.6416 14.618 4.6416Z" fill="#E1964F"/>
<path d="M22.27 2.49486C22.27 2.49486 21.4337 2.77986 19.5737 2.68424C17.7137 2.58861 16.8588 2.41799 16.8588 2.41799C16.8588 2.41799 17.0294 3.48111 16.63 4.33611C16.2306 5.1911 15.7938 4.99985 15.6813 5.66547C15.5669 6.32922 15.6044 6.6911 15.2631 6.67235C14.9219 6.6536 14.95 5.16298 14.74 4.84048C14.5319 4.51798 13.81 4.98298 13.7425 5.13485C13.6788 5.28673 12.7394 2.47611 14.5525 1.49924C14.5525 1.49924 15.1131 0.113626 17.5244 0.00862616C19.9356 -0.0963733 21.8631 0.758623 22.27 2.49486Z" fill="#151A25"/>
<path d="M17.1305 4.96976C17.1305 4.96976 17.3836 4.52726 18.068 4.52726C18.7524 4.52726 18.8143 4.94539 19.0299 4.90789C19.2455 4.87039 19.1574 4.17289 18.4599 4.03414C17.7643 3.89352 17.1193 4.22351 17.1305 4.96976Z" fill="#151A25"/>
<path d="M22.1219 4.9567C22.1219 4.9567 21.9063 4.5142 21.3213 4.5142C20.7363 4.5142 20.6838 4.93232 20.4981 4.89482C20.3144 4.85732 20.3894 4.15983 20.9856 4.02108C21.58 3.88233 22.1313 4.21045 22.1219 4.9567Z" fill="#151A25"/>
<path d="M18.5107 5.69542C18.5107 5.91104 18.4095 6.08542 18.282 6.08542C18.1563 6.08542 18.0532 5.91104 18.0532 5.69542C18.0532 5.47979 18.1545 5.30542 18.282 5.30542C18.4095 5.30542 18.5107 5.47979 18.5107 5.69542Z" fill="#151A25"/>
<path d="M21.1504 5.67662C21.1504 5.89224 21.0491 6.06662 20.9216 6.06662C20.796 6.06662 20.6929 5.89224 20.6929 5.67662C20.6929 5.461 20.7941 5.28662 20.9216 5.28662C21.0491 5.28662 21.1504 5.461 21.1504 5.67662Z" fill="#151A25"/>
<path d="M24.8724 22.9752C23.5037 23.5584 20.8187 24.464 17.2956 24.464C12.0925 24.464 9.77686 22.3752 9.77686 22.3752L10.765 18.4265C10.765 18.4265 14.6012 20.7815 19.1574 20.4009C22.2905 20.1403 23.843 19.1784 24.5087 18.6046C24.6399 19.8928 24.7618 21.4153 24.8724 22.9752Z" fill="#1C3B51"/>
<path d="M14.2959 12.1472L14.879 10.8047C14.879 10.8047 17.4871 12.5259 18.4734 12.6028L18.6515 13.0584L18.854 12.5259C18.854 12.5259 19.4615 12.3741 19.6134 12.1453C19.7652 11.9166 19.994 13.1841 19.994 13.1841C19.994 13.1841 19.7652 13.7165 18.2465 13.7165C16.7259 13.7165 14.2959 12.1472 14.2959 12.1472Z" fill="#152D40"/>
<path d="M18.5479 13.6154C18.5479 13.6154 20.3703 29.2491 20.2185 32.7816L20.751 32.8191C20.751 32.8191 20.1435 17.5135 18.8516 13.6023L18.5479 13.6154Z" fill="#B2BFE1"/>
<path d="M23.5995 37.6434H16.3076V23.6672L23.4738 23.9204L23.5995 37.6434Z" fill="#A9402C"/>
<path d="M37.0003 37.6752H23.4873L23.4629 23.9277L37.0003 23.699V37.6752Z" fill="#D14F2D"/>
<path d="M16.3076 23.6673L23.5245 24.048L37 23.6992L25.4613 23.1367L16.3076 23.6673Z" fill="#EA6F57"/>
<path d="M31.0429 28.5608H30.7017V37.4539H31.0429V28.5608Z" fill="#A9402C"/>
<path d="M23.6895 24.2747L30.8782 28.5534V28.9584L23.7138 24.6047L23.6895 24.2747Z" fill="#A9402C"/>
<path d="M36.88 24.0984L31.3862 28.3771V28.7821L36.8593 24.4265L36.88 24.0984Z" fill="#A9402C"/>
<path d="M20.6817 35.4458C19.9224 36.7621 10.4537 37.3208 7.36555 35.1946C6.04743 34.2871 5.51306 31.6771 5.38369 28.7446C5.21119 24.8015 5.77181 20.2771 6.15056 18.5353C6.80868 15.4978 9.28929 14.384 9.28929 14.384C9.28929 14.384 9.47492 14.5003 9.73929 14.7778C10.3899 15.4584 11.5187 17.1009 11.5187 20.309C11.5187 24.8146 11.0124 26.8415 11.3668 27.7527C11.7212 28.664 12.3793 28.7146 12.278 29.6258C12.1768 30.5371 17.948 29.4233 19.9749 30.7902C21.998 32.1552 21.4411 34.1314 20.6817 35.4458Z" fill="#152D40"/>
<path d="M18.7509 34.7821C18.7509 34.7821 11.2078 36.1996 8.32033 34.5289C6.90846 33.7114 5.95597 31.3696 5.38222 28.7446C5.20972 24.8015 5.77035 20.2771 6.14909 18.5353C6.80722 15.4978 9.28783 14.384 9.28783 14.384C9.28783 14.384 9.47345 14.5003 9.73783 14.7778C9.36658 14.969 8.03721 15.8934 7.00409 19.6434C5.78909 24.0496 7.10534 31.9471 8.52283 33.0121C9.94033 34.0752 18.599 33.3664 18.599 33.3664L18.7509 34.7821Z" fill="#2867A4"/>
<path d="M20.0689 31.8514C20.0689 31.8514 21.1508 31.5101 21.3608 31.1876C21.5689 30.8651 22.3095 30.2201 22.9751 29.9914C23.6389 29.7626 24.1714 29.4401 24.552 29.6314C24.9326 29.8208 24.2482 30.3158 23.7926 30.4095C23.337 30.5051 22.8251 30.9608 22.9376 30.9983C23.052 31.0358 24.2107 30.5801 25.0264 30.4864C25.842 30.3908 26.4701 30.297 27.1526 30.4864C27.837 30.6758 27.4939 31.1314 27.1339 31.1895C26.7739 31.2458 26.3557 31.227 26.0707 31.2664C25.7857 31.3039 25.3676 31.5514 25.3676 31.5514C25.3676 31.5514 26.3164 31.4745 27.0007 31.5514C27.6851 31.6283 27.9682 31.7033 27.9682 31.9508C27.9682 32.1983 27.3232 32.292 26.772 32.292C26.2207 32.292 25.3864 32.5001 25.3864 32.5001C25.3864 32.5001 26.5264 32.4814 27.057 32.6708C27.5895 32.8601 27.4939 33.0889 27.057 33.1826C26.6201 33.2783 26.1645 33.1264 25.632 33.2595C25.0995 33.3926 25.4032 33.4301 25.7276 33.4301C26.0501 33.4301 26.5826 33.5445 26.6764 33.6964C26.772 33.8483 26.3726 34.0958 25.347 34.0189C24.3214 33.942 23.4101 34.2476 22.7258 34.4183C22.0414 34.5889 20.9783 34.722 20.277 34.5514C19.5739 34.377 19.0433 32.9708 20.0689 31.8514Z" fill="#E1964F"/>
</svg>
