<svg width="24" height="24" viewBox="0 0 24 24" fill="none" xmlns="http://www.w3.org/2000/svg">
<path d="M5.69421 6.43043C15.5426 5.09319 17.9696 5.25731 19.5001 7.00009C21.0305 8.74287 20.6722 14.4882 18.8832 16.0872C17.0952 17.6862 9.33021 17.8382 6.87021 16.0872C4.27121 14.2362 5.77921 8.54219 5.69421 5.09319C5.74521 3.16319 3.65021 2.85019 3.65021 2.85019" stroke="white" stroke-width="1.5" stroke-linecap="round" stroke-linejoin="round"/>
<path d="M14.1561 10.7198H16.9291" stroke="white" stroke-width="1.5" stroke-linecap="round" stroke-linejoin="round"/>
<path fill-rule="evenodd" clip-rule="evenodd" d="M7.26399 20.1275C7.56399 20.1275 7.80799 20.3715 7.80799 20.6715C7.80799 20.9725 7.56399 21.2165 7.26399 21.2165C6.96299 21.2165 6.71899 20.9725 6.71899 20.6715C6.71899 20.3715 6.96299 20.1275 7.26399 20.1275Z" fill="white" stroke="white" stroke-width="1.5" stroke-linecap="round" stroke-linejoin="round"/>
<path fill-rule="evenodd" clip-rule="evenodd" d="M17.5955 20.1275C17.8965 20.1275 18.1405 20.3715 18.1405 20.6715C18.1405 20.9725 17.8965 21.2165 17.5955 21.2165C17.2955 21.2165 17.0515 20.9725 17.0515 20.6715C17.0515 20.3715 17.2955 20.1275 17.5955 20.1275Z" fill="white" stroke="white" stroke-width="1.5" stroke-linecap="round" stroke-linejoin="round"/>
</svg>
