<svg width="21" height="24" viewBox="0 0 21 24" fill="none" xmlns="http://www.w3.org/2000/svg">
<path d="M3 5.06445V5.06445C1.39928 6.66518 0.5 8.83622 0.5 11.1V18.7137C0.5 19.8835 1.03175 20.9899 1.94522 21.7206V21.7206C2.62801 22.2669 3.47638 22.5645 4.35078 22.5645H15.5M3 5.06445V3.62511C3 2.94598 3.26978 2.29467 3.75 1.81445V1.81445C4.23022 1.33424 4.88153 1.06445 5.56066 1.06445H14.9393C15.6185 1.06445 16.2698 1.33424 16.75 1.81445V1.81445C17.2302 2.29467 17.5 2.94598 17.5 3.62511V5.06445M3 5.06445H17.5M17.5 5.06445V5.06445C19.4009 6.64855 20.5 8.99515 20.5 11.4696V18.2617C20.5 19.7003 19.781 21.0438 18.584 21.8418V21.8418C17.8772 22.313 17.0467 22.5645 16.1972 22.5645H15.5M17.5 5.06445V5.06445C16.1959 7.0206 15.5 9.319 15.5 11.67V22.5645" stroke="#726D69" stroke-opacity="0.66"/>
<circle cx="8.5" cy="14.0645" r="2" fill="#726D69" fill-opacity="0.66"/>
</svg>
