<svg width="24" height="24" viewBox="0 0 24 24" fill="none" xmlns="http://www.w3.org/2000/svg">
<path d="M6.07062 16.459C6.07062 16.459 6.88262 14.822 8.06462 14.822C9.24662 14.822 9.85062 16.197 11.1606 16.197C12.4696 16.197 13.9386 12.749 15.4226 12.749C16.9046 12.749 17.9706 15.14 17.9706 15.14" stroke="white" stroke-width="1.5" stroke-linecap="round" stroke-linejoin="round"/>
<path fill-rule="evenodd" clip-rule="evenodd" d="M10.1393 9.10491C10.1393 9.96491 9.44229 10.6629 8.58129 10.6629C7.72129 10.6629 7.02429 9.96491 7.02429 9.10491C7.02429 8.24491 7.72129 7.54691 8.58129 7.54691C9.44229 7.54791 10.1393 8.24491 10.1393 9.10491Z" stroke="white" stroke-width="1.5" stroke-linecap="round" stroke-linejoin="round"/>
<path fill-rule="evenodd" clip-rule="evenodd" d="M2.75031 12.0001C2.75031 18.9371 5.06331 21.2501 12.0003 21.2501C18.9373 21.2501 21.2503 18.9371 21.2503 12.0001C21.2503 5.06311 18.9373 2.75011 12.0003 2.75011C5.06331 2.75011 2.75031 5.06311 2.75031 12.0001Z" stroke="white" stroke-width="1.5" stroke-linecap="round" stroke-linejoin="round"/>
</svg>
