<svg width="12" height="11" viewBox="0 0 12 11" fill="none" xmlns="http://www.w3.org/2000/svg">
<path d="M9.89453 5.50021H11.0059" stroke="#231000" stroke-linecap="round" stroke-linejoin="round"/>
<path d="M1 5.50021H2.11142" stroke="#231000" stroke-linecap="round" stroke-linejoin="round"/>
<path d="M6.00293 9.3924V10.5038" stroke="#231000" stroke-linecap="round" stroke-linejoin="round"/>
<path d="M6.00293 0.496185V1.6076" stroke="#231000" stroke-linecap="round" stroke-linejoin="round"/>
<path d="M9.89529 5.50124C9.89529 7.65072 8.1528 9.39322 6.00331 9.39322C3.85383 9.39322 2.11133 7.65072 2.11133 5.50124C2.11133 3.35175 3.85383 1.60925 6.00331 1.60925C8.1528 1.60925 9.89529 3.35175 9.89529 5.50124Z" stroke="#231000"/>
<path d="M7.67095 5.50097C7.67095 6.4222 6.92419 7.16896 6.00295 7.16896C5.08172 7.16896 4.33496 6.4222 4.33496 5.50097C4.33496 4.57974 5.08172 3.83298 6.00295 3.83298C6.92419 3.83298 7.67095 4.57974 7.67095 5.50097Z" stroke="#231000"/>
</svg>
