<svg width="29" height="29" viewBox="0 0 29 29" fill="none" xmlns="http://www.w3.org/2000/svg">
<path fill-rule="evenodd" clip-rule="evenodd" d="M14.3125 26.1748C9.85154 26.1748 6.04199 25.4807 6.04199 22.7005C6.04199 19.9204 9.82737 17.354 14.3125 17.354C18.7734 17.354 22.583 19.8956 22.583 22.6757C22.583 25.4547 18.7976 26.1748 14.3125 26.1748Z" stroke="#BE7A3A" stroke-width="1.5" stroke-linecap="round" stroke-linejoin="round"/>
<path fill-rule="evenodd" clip-rule="evenodd" d="M14.3033 13.5014C17.2307 13.5014 19.6035 11.1287 19.6035 8.20119C19.6035 5.27373 17.2307 2.8999 14.3033 2.8999C11.3758 2.8999 9.00198 5.27373 9.00198 8.20119C8.9921 11.1188 11.3483 13.4915 14.2659 13.5014C14.2791 13.5014 14.2912 13.5014 14.3033 13.5014Z" stroke="#BE7A3A" stroke-width="1.5" stroke-linecap="round" stroke-linejoin="round"/>
</svg>
