<svg width="33" height="41" viewBox="0 0 33 41" fill="none" xmlns="http://www.w3.org/2000/svg">
<path d="M31.6169 15.609C31.6169 15.609 30.4494 3.86947 17.1189 8.11224C14.3215 9.00197 8.75187 -0.112977 2.8423 3.92192C-3.06726 7.95488 1.24932 20.1373 6.5994 23.7195C11.9475 27.3018 15.5609 19.7429 20.1922 21.841C24.8235 23.9391 27.955 26.8569 30.2279 24.4694C32.5009 22.0799 31.6169 15.609 31.6169 15.609Z" fill="#F0D0C7" fill-opacity="0.55"/>
<path d="M3.0618 33.9573C2.91416 34.7013 6.86359 37.4599 14.8382 39.0315C22.8128 40.6031 29.7034 41.2947 31.9414 39.6454C32.565 39.1869 30.8632 37.1898 22.8886 35.6182C14.912 34.0486 3.2075 33.2132 3.0618 33.9573Z" fill="#BFBBB8"/>
<path d="M7.62691 35.3035C5.22898 35.3035 3.28507 33.3083 3.28507 30.8471C3.28507 28.3858 5.22898 26.3906 7.62691 26.3906C10.0248 26.3906 11.9688 28.3858 11.9688 30.8471C11.9688 33.3083 10.0248 35.3035 7.62691 35.3035Z" fill="#152D40"/>
<path d="M6.67277 33.6268C5.47971 33.6268 4.51253 32.4344 4.51253 30.9634C4.51253 29.4925 5.47971 28.3 6.67277 28.3C7.86584 28.3 8.83301 29.4925 8.83301 30.9634C8.83301 32.4344 7.86584 33.6268 6.67277 33.6268Z" fill="#2867A4"/>
<path d="M23.7256 32.2105C23.7256 32.2105 21.3128 33.1449 16.6873 32.5544C12.0599 31.9638 12.0599 31.177 12.0599 31.177C12.0599 31.177 13.684 29.1586 16.4892 29.2072C19.2963 29.2577 23.7256 32.2105 23.7256 32.2105Z" fill="#D97938"/>
<path d="M13.6843 31.1286C13.6843 31.1286 12.6508 23.8437 11.1743 22.2196C9.69792 20.5955 17.1791 21.4328 17.1791 21.4328L19.7881 31.0801L13.6843 31.1286Z" fill="#AA5D29"/>
<path d="M12.4545 22.3676C12.4545 22.3676 15.1626 29.1105 13.8823 31.4747C12.6021 33.837 3.44639 30.8356 2.65961 29.604C1.87284 28.3743 3.20161 25.0251 4.62946 23.7469C6.05732 22.4666 6.30403 21.5322 6.30403 21.5322L12.4545 22.3676Z" fill="#D97938"/>
<path d="M23.4807 32.0632C23.4807 32.0632 16.3434 32.5547 14.2259 31.7679C12.1084 30.9811 14.9155 28.9122 18.9524 29.3066C22.9892 29.7009 25.1553 31.5717 25.1553 31.5717L23.4807 32.0632Z" fill="#C16A2F"/>
<path d="M22.9391 30.9305C22.9391 30.9305 21.857 30.5866 21.4141 30.167C20.9711 29.7494 20.2815 29.6989 19.518 29.8232C18.7546 29.9456 18.6322 30.2175 18.6322 30.2175C18.6322 30.2175 18.4593 31.1287 18.6574 31.4239C18.8536 31.7192 21.1188 31.7445 22.0299 31.6454C22.9391 31.5463 23.5296 31.3987 22.9391 30.9305Z" fill="#29496B"/>
<path d="M16.4893 22.6628C16.4893 22.6628 13.4859 22.9581 9.35193 22.6143C5.21796 22.2704 5.16745 21.9246 5.46273 21.0873C5.75802 20.2501 7.33351 20.7435 8.31844 20.4968C9.30337 20.2501 15.3567 21.0388 15.3567 21.0388L16.4893 22.6628Z" fill="#29496B"/>
<path d="M24.5325 16.6038C24.5325 16.6038 27.3726 17.5052 28.006 20.2521C28.5013 22.3987 29.1191 26.4239 28.5868 29.334C28.0545 32.246 24.3615 33.1358 24.3615 33.1358L23.5883 16.8913L24.5325 16.6038Z" fill="#C16A2F"/>
<path d="M8.41537 12.1763H13.7324V21.1358H8.41537V12.1763Z" fill="#A9402C"/>
<path d="M4.23277 20.4967L8.46582 21.1358V12.1763H4.23277V20.4967Z" fill="#D14F2D"/>
<path d="M17.6044 17.3008L17.8045 17.8447C17.8045 17.8447 21.7325 18.3615 23.0516 20.2808C24.3707 22.2021 25.1439 28.881 24.5999 29.2831C24.056 29.6852 22.937 29.6852 22.4494 29.1976C21.9618 28.71 20.9594 23.2919 20.3843 22.5188C19.8113 21.7456 15.9687 20.6849 15.2518 19.2221C14.535 17.7592 14.8788 17.5028 14.8788 17.5028L17.6044 17.3008Z" fill="#0F2330"/>
<path d="M10.5236 17.1377C10.5236 17.1377 10.036 18.2275 11.4114 20.5976C12.7868 22.9676 15.798 22.7578 16.6391 23.4844C17.4803 24.2109 17.5561 29.5629 18.2068 30.0583C18.8576 30.5556 20.1942 30.2487 21.0354 30.0583C21.8765 29.8679 19.4676 20.617 18.7799 19.5854C18.0922 18.5539 15.798 18.21 15.798 18.21L15.6445 17.2154L10.5236 17.1377Z" fill="#152D40"/>
<path d="M20.7998 16.644C20.7998 16.644 18.8727 17.5862 18.0529 19.8009C17.2331 22.0155 20.2928 32.1736 21.9324 32.8711C23.572 33.5685 26.4996 34.1532 27.1154 28.4535C27.7312 22.7537 24.5316 17.3415 23.4243 16.8092" fill="#D97938"/>
<path d="M23.9903 15.9643L25.828 15.8341L27.5647 15.7098C27.8814 15.6865 28.1184 15.4126 28.0951 15.0978C28.0718 14.7812 27.7979 14.5442 27.4832 14.5675L23.9087 14.822C23.592 14.8453 23.355 15.1192 23.3783 15.4339C23.4016 15.7486 23.6756 15.9876 23.9903 15.9643Z" fill="#29496B"/>
<path d="M24.3999 14.8165C24.3999 14.8165 24.7146 14.4338 24.9536 14.3095C25.1925 14.1852 25.4023 14.2707 25.4023 14.2707C25.4023 14.2707 25.651 14.1172 25.8414 14.1172C26.0317 14.1172 26.1289 14.2318 26.1289 14.2318C26.1289 14.2318 26.3387 14.1075 26.4824 14.1269C26.6262 14.1463 26.6922 14.2415 26.6922 14.2415C26.6922 14.2415 26.8651 14.156 27.0652 14.2512C27.2653 14.3464 27.5917 14.8535 27.4946 15.3313C27.3994 15.8092 26.9778 15.9336 26.8729 15.8947C26.768 15.8559 26.7389 15.7801 26.7389 15.7801C26.7389 15.7801 26.5291 16.0482 26.327 15.9608C26.125 15.8734 26.1269 15.8753 26.1269 15.8753C26.1269 15.8753 25.888 16.0482 25.7345 15.9802C25.581 15.9141 25.581 15.9141 25.581 15.9141C25.581 15.9141 25.4567 16.0579 25.2566 16.0288C25.0565 15.9996 25.0177 15.9336 24.9613 15.8656C24.9031 15.7995 25.2605 15.5509 25.2294 15.4168C25.0546 14.6534 24.3999 14.8165 24.3999 14.8165Z" fill="#E1964F"/>
<path d="M16.7163 7.37201C16.7163 7.37201 18.1306 7.24768 18.3598 9.33992C18.589 11.4322 19.0086 11.3661 19.8887 11.9586C20.5064 12.3744 23.1951 12.5026 23.7682 13.3632C24.3412 14.2238 23.3952 15.4845 21.3321 15.1698C19.267 14.8551 17.8528 14.521 17.1942 12.5706C16.5337 10.6221 16.7163 7.37201 16.7163 7.37201Z" fill="#152D40"/>
<path d="M17.4627 17.3865L12.2738 17.6158C11.5395 17.6158 10.0437 17.5847 10.067 16.8504C10.1408 14.4434 10.1641 7.51201 10.7683 7.25946C11.5764 6.92338 12.9887 6.25122 12.9887 6.25122L15.3432 6.54262C15.3432 6.54262 16.8915 6.92338 17.249 7.55086C17.3403 7.7121 17.4296 8.30849 17.5112 9.10887C17.5695 9.68001 17.6239 10.3541 17.6725 11.0457C17.756 12.2404 17.8357 13.6858 17.8881 14.7212C17.925 15.4652 18.2048 17.3865 17.4627 17.3865Z" fill="#2867A4"/>
<path d="M16.7558 1.58276C16.7558 1.58276 17.4882 3.44771 16.8549 4.44818C16.2216 5.44671 15.7223 4.59777 15.7223 4.59777L16.3712 1.73235L16.7558 1.58276Z" fill="#152D40"/>
<path d="M13.2586 4.87964L13.2255 5.94616C13.2255 5.94616 14.158 6.71156 14.768 6.67854C15.378 6.64551 15.2906 6.47845 15.2906 6.47845L15.3022 5.73441C15.3003 5.73441 13.8355 4.89129 13.2586 4.87964Z" fill="#C17638"/>
<path d="M16.464 4.50649C16.3979 5.63906 15.7724 5.91297 15.2401 6.08004C14.7098 6.24517 13.7307 5.76727 13.3791 5.17088C13.3791 5.16893 13.3771 5.16699 13.3752 5.16505C13.3577 5.13591 13.3422 5.10483 13.3266 5.07374C13.0333 4.49483 13.0935 3.83821 13.0935 3.83821C13.0935 3.83821 13.076 3.46134 13.0954 3.01647C13.1149 2.5716 13.1712 2.06262 13.3149 1.79454C13.6044 1.26225 14.4747 1.13403 14.8594 1.13403C15.2421 1.13403 15.9745 1.41766 16.2756 1.81591C16.5728 2.21609 16.4834 4.17235 16.464 4.50649Z" fill="#E1964F"/>
<path d="M13.0996 2.89795C13.0996 2.89795 12.8004 2.91543 12.6411 3.22237C12.4837 3.53126 12.6003 4.23061 13.1481 4.30443C13.6998 4.3802 13.0996 2.89795 13.0996 2.89795Z" fill="#E1964F"/>
<path d="M16.4565 1.95761C16.4565 1.95761 16.0894 2.08194 15.2735 2.04114C14.4575 2.00035 14.0826 1.92459 14.0826 1.92459C14.0826 1.92459 14.1584 2.39082 13.9835 2.76576C13.8087 3.14069 13.6164 3.05715 13.5678 3.34855C13.5192 3.63995 13.5348 3.79731 13.3852 3.78954C13.2356 3.78177 13.2473 3.12709 13.156 2.98528C13.0647 2.84346 12.748 3.04744 12.7189 3.11349C12.6897 3.17954 12.2779 1.9479 13.0724 1.51857C13.0724 1.51857 13.3172 0.910518 14.376 0.863894C15.4308 0.821156 16.2778 1.19415 16.4565 1.95761Z" fill="#151A25"/>
<path d="M14.2008 3.04186C14.2008 3.04186 14.3115 2.84759 14.6107 2.84759C14.9098 2.84759 14.939 3.0302 15.0322 3.01466C15.1274 2.99718 15.0886 2.69218 14.7816 2.63196C14.4786 2.56979 14.1969 2.71549 14.2008 3.04186Z" fill="#151A25"/>
<path d="M16.3906 3.03585C16.3906 3.03585 16.2954 2.84159 16.039 2.84159C15.7825 2.84159 15.7592 3.0242 15.6776 3.00866C15.596 2.99117 15.631 2.68618 15.8913 2.62595C16.1536 2.56573 16.3945 2.70949 16.3906 3.03585Z" fill="#151A25"/>
<path d="M14.8071 3.36041C14.8071 3.4556 14.7624 3.53136 14.7081 3.53136C14.6537 3.53136 14.609 3.4556 14.609 3.36041C14.609 3.26522 14.6537 3.18945 14.7081 3.18945C14.7624 3.18945 14.8071 3.26522 14.8071 3.36041Z" fill="#151A25"/>
<path d="M15.9644 3.35259C15.9644 3.44778 15.9197 3.52355 15.8653 3.52355C15.8109 3.52355 15.7662 3.44778 15.7662 3.35259C15.7662 3.2574 15.8109 3.18164 15.8653 3.18164C15.9197 3.18164 15.9644 3.2574 15.9644 3.35259Z" fill="#151A25"/>
<path d="M13.2377 3.38965L13.6787 3.96079L13.6165 4.00936L13.2591 3.52369L13.2377 3.38965Z" fill="#EFF5E1"/>
<path d="M16.9668 1.9598C16.959 2.99912 14.4918 2.51734 13.9984 2.41244C13.944 2.40078 13.9129 2.39301 13.9129 2.39301C13.9129 2.39301 13.7905 4.3143 13.503 4.76888C13.3554 5.002 12.9027 5.09331 12.4753 4.90293H12.4734C12.0674 4.72032 11.6847 4.28322 11.6147 3.47119C11.471 1.80633 12.0926 0.39596 13.6798 0.0851353C15.2669 -0.227633 16.9765 0.304655 16.9668 1.9598Z" fill="#2867A4"/>
<path d="M13.9985 2.41216C13.9441 2.40051 13.9131 2.39273 13.9131 2.39273C13.9131 2.39273 13.7907 4.31402 13.5032 4.7686C13.3555 5.00172 12.9029 5.09303 12.4755 4.90265C12.6076 4.92596 12.9689 4.95704 13.1477 4.66953C13.3711 4.31402 13.6916 2.26646 13.6916 2.26646L13.9908 2.1499L13.9985 2.41216Z" fill="#152D40"/>
<path d="M13.6859 2.2976C13.6859 2.2976 13.6917 2.14024 13.8335 2.08196C13.9754 2.02368 15.3566 1.674 15.9413 1.70703C16.5241 1.74005 17.2079 1.99066 17.3245 2.21406C17.4411 2.43941 15.9763 2.65505 15.0341 2.61425C14.09 2.57345 13.6859 2.2976 13.6859 2.2976Z" fill="#1C3B51"/>
<path d="M12.6758 3.06494C12.6758 3.51564 12.4718 3.88086 12.2212 3.88086C11.9706 3.88086 11.7666 3.51564 11.7666 3.06494C11.7666 2.61424 11.9706 2.24902 12.2212 2.24902C12.4718 2.24902 12.6758 2.61424 12.6758 3.06494Z" fill="#1C3B51"/>
<path d="M13.6469 1.93639C13.6469 1.93639 15.2768 1.09716 16.8018 1.79457C16.8018 1.79457 16.6094 1.22732 16.25 0.955345C15.8907 0.683373 15.3215 0.456082 14.4919 0.792162C13.711 1.10687 13.6469 1.93639 13.6469 1.93639Z" fill="#275C89"/>
<path d="M17.6431 11.0572C17.037 11.3156 15.848 11.7158 14.2881 11.7158C11.9841 11.7158 10.9584 10.7911 10.9584 10.7911L10.9467 8.63281C10.9467 8.63281 13.0953 10.084 15.1137 9.91497C16.5008 9.79841 17.1885 9.37296 17.4838 9.11848C17.5401 9.69156 17.5945 10.3657 17.6431 11.0572Z" fill="#1C3B51"/>
<path d="M26.8574 14.4626C26.8574 14.4626 27.075 15.0882 26.8633 15.4126C26.6515 15.7351 26.8924 15.6457 27.0148 15.4631C27.1372 15.2824 27.1352 14.9114 26.8574 14.4626Z" fill="#C16A2F"/>
<path d="M26.2783 14.4978C26.2783 14.4978 26.4958 15.1233 26.2841 15.4478C26.0723 15.7702 26.3132 15.6809 26.4356 15.4983C26.558 15.3157 26.558 14.9466 26.2783 14.4978Z" fill="#C16A2F"/>
<path d="M25.6533 14.6277C25.6533 14.6277 25.8709 15.2532 25.6592 15.5776C25.4474 15.9001 25.6883 15.8108 25.8107 15.6282C25.9331 15.4475 25.9311 15.0764 25.6533 14.6277Z" fill="#C16A2F"/>
<path d="M12.9574 6.26096L13.2158 5.6665C13.2158 5.6665 14.3717 6.42803 14.8088 6.46299L14.8865 6.66503L14.9759 6.42997C14.9759 6.42997 15.2459 6.36198 15.3119 6.26096C15.3799 6.15994 15.481 6.72137 15.481 6.72137C15.481 6.72137 15.3799 6.95643 14.7078 6.95643C14.0356 6.95643 12.9574 6.26096 12.9574 6.26096Z" fill="#152D40"/>
<path d="M14.8423 6.91159C14.8423 6.91159 15.6835 14.5229 15.6155 16.0868H15.8506C15.8506 16.0868 15.5475 8.63861 14.9764 6.90576L14.8423 6.91159Z" fill="#B2BFE1"/>
<path d="M17.5577 15.1308C17.5577 15.1308 17.5771 14.8258 16.9652 14.5966C16.3532 14.3673 13.5053 14.6549 12.7787 14.3091C12.0522 13.9652 11.9764 14.1284 11.7841 14.0895C11.5937 14.0507 11.7258 11.8244 11.6112 10.7346C11.4966 9.64474 11.1625 7.58164 10.838 7.25527C10.838 7.25527 10.5291 6.85703 9.63358 8.03816C8.91674 8.98424 9.28973 15.8923 10.8089 16.5528C12.8584 17.4426 16.1415 17.5572 16.8583 17.3552C17.5752 17.1551 17.6606 16.4674 17.6606 16.4674L17.5577 15.1308Z" fill="#152D40"/>
<path d="M15.899 16.0535C15.899 16.648 16.3672 17.1278 16.9461 17.1278C17.523 17.1278 17.9932 16.646 17.9932 16.0535C17.9932 15.461 17.525 14.9792 16.9461 14.9792C16.3672 14.9792 15.899 15.4591 15.899 16.0535Z" fill="#102533"/>
<path d="M25.8707 13.9091C25.8707 13.9091 25.4686 12.9824 24.5905 12.8484C23.7105 12.7144 22.5351 13.0582 21.828 13.9188C21.1209 14.7794 19.0753 15.0456 18.5799 15.4088C18.0826 15.7721 18.2555 16.7279 18.8849 16.9377C19.5163 17.1475 21.5036 16.689 22.3253 17.1106C23.1471 17.5302 24.6274 17.3301 25.317 17.0445C26.0047 16.757 26.6555 15.2087 25.8707 13.9091Z" fill="#D97938"/>
<path d="M16.4405 16.8774L18.051 16.6715L19.574 16.4773C19.8518 16.4423 20.0441 16.1664 20.0053 15.8634C19.9664 15.5603 19.71 15.3427 19.4341 15.3777L16.3006 15.776C16.0228 15.8109 15.8305 16.0868 15.8694 16.3898C15.9082 16.6948 16.1646 16.9124 16.4405 16.8774Z" fill="#29496B"/>
<path d="M16.2773 15.7719C16.2773 15.7719 16.5921 15.3892 16.831 15.2648C17.0699 15.1405 17.2798 15.226 17.2798 15.226C17.2798 15.226 17.5284 15.0725 17.7188 15.0725C17.9092 15.0725 18.0063 15.1871 18.0063 15.1871C18.0063 15.1871 18.2161 15.0628 18.3599 15.0822C18.5036 15.1016 18.5697 15.1968 18.5697 15.1968C18.5697 15.1968 18.7426 15.1114 18.9427 15.2066C19.1428 15.3017 19.4691 15.8088 19.372 16.2867C19.2768 16.7646 18.8553 16.8889 18.7503 16.85C18.6454 16.8112 18.6163 16.7354 18.6163 16.7354C18.6163 16.7354 18.4065 17.0035 18.2045 16.9161C18.0044 16.8306 18.0044 16.8306 18.0044 16.8306C18.0044 16.8306 17.7654 17.0035 17.612 16.9355C17.4585 16.8695 17.4585 16.8695 17.4585 16.8695C17.4585 16.8695 17.3341 17.0132 17.1341 16.9841C16.934 16.9549 16.8951 16.8889 16.8388 16.8209C16.7805 16.7549 17.1379 16.5062 17.1069 16.3721C16.932 15.6087 16.2773 15.7719 16.2773 15.7719Z" fill="#E1964F"/>
<path d="M22.8899 15.3386C22.6934 14.5064 23.2087 13.6725 24.0409 13.476C24.8731 13.2795 25.707 13.7948 25.9035 14.627C26.1 15.4592 25.5847 16.2931 24.7525 16.4896C23.9203 16.6861 23.0864 16.1708 22.8899 15.3386Z" fill="#FEF6D4"/>
<path d="M26.7175 39.8785C24.1479 39.8785 22.0648 37.7406 22.0648 35.1034C22.0648 32.4662 24.1479 30.3284 26.7175 30.3284C29.2871 30.3284 31.3701 32.4662 31.3701 35.1034C31.3701 37.7406 29.2871 39.8785 26.7175 39.8785Z" fill="#152D40"/>
<path d="M25.6936 38.0816C24.4147 38.0816 23.378 36.8039 23.378 35.2278C23.378 33.6517 24.4147 32.374 25.6936 32.374C26.9725 32.374 28.0093 33.6517 28.0093 35.2278C28.0093 36.8039 26.9725 38.0816 25.6936 38.0816Z" fill="#2867A4"/>
<path d="M24.7844 30.7944C24.7844 30.7944 26.7698 36.2106 26.2317 36.8322C25.6936 37.4539 25.0331 37.4519 24.6193 36.0474C24.2055 34.6409 23.5023 31.5404 23.5023 31.5404L24.7844 30.7944Z" fill="#29496B"/>
<path d="M31.8227 33.2948C31.8227 33.2948 31.2574 32.7295 30.3463 32.8033C29.4352 32.8772 29.4605 33.493 28.7223 33.493C27.9841 33.493 27.8112 32.2633 25.6703 31.966C23.5295 31.6708 23.0866 32.8772 22.1017 33.0986C21.1168 33.3201 21.9055 31.6474 24.1454 30.3672C26.3852 29.087 28.798 29.629 30.4959 30.7849C32.1938 31.9408 32.66 33.4658 31.8227 33.2948Z" fill="#C16A2F"/>
<path d="M23.6523 18.7733C23.6523 18.7733 21.9291 18.4042 21.4609 18.5771C20.9928 18.75 22.2982 19.1677 21.3385 19.2668C20.3789 19.3658 18.7781 19.6611 18.6557 19.9059C18.5334 20.1526 21.7815 19.733 22.1253 19.6592C22.4692 19.5853 22.1253 18.9462 22.1253 18.9462C22.1253 18.9462 23.5532 18.9462 23.6523 18.9462C23.7513 18.9443 23.6523 18.7733 23.6523 18.7733Z" fill="#FEF6D4"/>
<path d="M21.4487 30.919C21.4487 30.919 18.8281 24.5315 19.0126 22.6122C19.1972 20.6928 19.3818 22.3907 20.2307 25.565C21.0796 28.7412 22.2608 31.5095 21.4487 30.919Z" fill="#C16A2F"/>
<path d="M18.6983 15.4592C18.6983 15.4592 18.9158 16.0848 18.7041 16.4092C18.4923 16.7317 18.7332 16.6423 18.8556 16.4597C18.978 16.279 18.9761 15.908 18.6983 15.4592Z" fill="#C16A2F"/>
<path d="M18.1191 15.4939C18.1191 15.4939 18.3367 16.1194 18.1249 16.4439C17.9132 16.7663 18.1541 16.677 18.2764 16.4944C18.3988 16.3137 18.3988 15.9427 18.1191 15.4939Z" fill="#C16A2F"/>
<path d="M17.4937 15.6243C17.4937 15.6243 17.7112 16.2498 17.4995 16.5742C17.2877 16.8987 17.5286 16.8073 17.651 16.6247C17.7734 16.4441 17.7715 16.073 17.4937 15.6243Z" fill="#C16A2F"/>
<path d="M4.87224 24.9258C4.87224 24.9258 8.9829 25.8855 9.17911 26.2293C9.37726 26.5751 4.11071 25.4678 4.87224 24.9258Z" fill="#C16A2F"/>
<path d="M4.60223 26.0332C4.60223 26.0332 8.71289 26.9929 8.90909 27.3367C9.10724 27.6825 3.83876 26.5752 4.60223 26.0332Z" fill="#C16A2F"/>
<path d="M4.45427 27.0918C4.45427 27.0918 8.56494 28.0515 8.76114 28.3953C8.9593 28.7411 3.6908 27.6338 4.45427 27.0918Z" fill="#C16A2F"/>
<path d="M5.73458 20.718L6.48834 20.8307L6.49805 12.2014H5.73458V20.718Z" fill="#EA6F57"/>
</svg>
