<svg width="38" height="37" viewBox="0 0 38 37" fill="none" xmlns="http://www.w3.org/2000/svg">
<path d="M33.9473 11.5943C33.9473 11.5943 29.0349 3.48123 23.123 3.38748C17.2112 3.29373 13.2081 7.63246 11.1175 14.3299C9.02497 21.0274 3.84061 19.4243 2.4775 24.7999C1.1125 30.1774 22.6693 37.8179 33.1298 30.9311C43.5886 24.0461 33.9473 11.5943 33.9473 11.5943Z" fill="#1E824C" fill-opacity="0.23"/>
<path d="M14.0835 15.0854C14.0835 15.0854 12.9192 16.1486 12.0061 19.5423C11.0948 22.9342 10.7911 26.9354 9.27232 27.9479C7.75358 28.9604 5.52609 27.5935 4.15734 29.416C2.79047 31.2385 5.16984 33.2635 6.48608 33.6179C7.80232 33.9722 10.5361 34.5797 13.1198 32.8585C15.7035 31.1354 14.0835 15.0854 14.0835 15.0854Z" fill="#152D40"/>
<path d="M12.5651 32.9597H30.895C30.895 32.9597 30.5406 15.1867 28.7182 14.4273C26.8938 13.6679 23.7044 12.1492 23.7044 12.1492L18.387 12.8073C18.387 12.8073 14.8938 13.6679 14.0838 15.0854C13.8757 15.4492 13.6751 16.7973 13.4913 18.6048C13.3601 19.8929 13.2382 21.4154 13.1276 22.9772C12.7882 27.7772 12.5651 32.9597 12.5651 32.9597Z" fill="#2867A4"/>
<path d="M23.0198 9.1604L23.0967 11.5904C23.0967 11.5904 20.9704 13.3379 19.5773 13.261C18.1842 13.1841 18.3867 12.8054 18.3867 12.8054L18.3605 11.1085C18.3623 11.1104 21.7036 9.18478 23.0198 9.1604Z" fill="#C17638"/>
<path d="M15.7116 8.30743C15.8634 10.8893 17.2866 11.5155 18.5015 11.8962C19.7128 12.2749 21.9422 11.1818 22.7465 9.82054C22.7484 9.81679 22.7503 9.81117 22.754 9.80742C22.7934 9.73992 22.8309 9.67054 22.8647 9.60117H22.8684C23.5378 8.2793 23.4009 6.78118 23.4009 6.78118C23.4009 6.78118 23.4384 5.92056 23.3953 4.90807C23.3503 3.89557 23.2228 2.7312 22.8947 2.1237C22.2347 0.90871 20.249 0.616211 19.3753 0.616211C18.5015 0.616211 16.8309 1.26121 16.1466 2.17245C15.4641 3.0837 15.6666 7.54618 15.7116 8.30743Z" fill="#E1964F"/>
<path d="M23.382 4.6416C23.382 4.6416 24.0664 4.6791 24.4264 5.38222C24.7864 6.08534 24.522 7.67909 23.2676 7.85159C22.0151 8.02034 23.382 4.6416 23.382 4.6416Z" fill="#E1964F"/>
<path d="M15.73 2.49486C15.73 2.49486 16.5663 2.77986 18.4263 2.68424C20.2863 2.58861 21.1412 2.41799 21.1412 2.41799C21.1412 2.41799 20.9706 3.48111 21.37 4.33611C21.7694 5.1911 22.2062 4.99985 22.3187 5.66547C22.4331 6.32922 22.3956 6.6911 22.7369 6.67235C23.0781 6.6536 23.05 5.16298 23.26 4.84048C23.4681 4.51798 24.19 4.98298 24.2575 5.13485C24.3212 5.28673 25.2606 2.47611 23.4475 1.49924C23.4475 1.49924 22.8869 0.113626 20.4756 0.00862616C18.0644 -0.0963733 16.1369 0.758623 15.73 2.49486Z" fill="#151A25"/>
<path d="M20.8695 4.96976C20.8695 4.96976 20.6164 4.52726 19.932 4.52726C19.2476 4.52726 19.1857 4.94539 18.9701 4.90789C18.7545 4.87039 18.8426 4.17289 19.5401 4.03414C20.2357 3.89352 20.8807 4.22351 20.8695 4.96976Z" fill="#151A25"/>
<path d="M15.8781 4.9567C15.8781 4.9567 16.0937 4.5142 16.6787 4.5142C17.2637 4.5142 17.3162 4.93232 17.5019 4.89482C17.6856 4.85732 17.6106 4.15983 17.0144 4.02108C16.42 3.88233 15.8687 4.21045 15.8781 4.9567Z" fill="#151A25"/>
<path d="M19.4893 5.69542C19.4893 5.91104 19.5905 6.08542 19.718 6.08542C19.8437 6.08542 19.9468 5.91104 19.9468 5.69542C19.9468 5.47979 19.8455 5.30542 19.718 5.30542C19.5905 5.30542 19.4893 5.47979 19.4893 5.69542Z" fill="#151A25"/>
<path d="M16.8496 5.67662C16.8496 5.89224 16.9509 6.06662 17.0784 6.06662C17.204 6.06662 17.3071 5.89224 17.3071 5.67662C17.3071 5.461 17.2059 5.28662 17.0784 5.28662C16.9509 5.28662 16.8496 5.461 16.8496 5.67662Z" fill="#151A25"/>
<path d="M13.1276 22.9752C14.4963 23.5584 17.1813 24.464 20.7044 24.464C25.9075 24.464 28.2231 22.3752 28.2231 22.3752L27.235 18.4265C27.235 18.4265 23.3988 20.7815 18.8426 20.4009C15.7095 20.1403 14.157 19.1784 13.4913 18.6046C13.3601 19.8928 13.2382 21.4153 13.1276 22.9752Z" fill="#1C3B51"/>
<path d="M23.7041 12.1472L23.121 10.8047C23.121 10.8047 20.5129 12.5259 19.5266 12.6028L19.3485 13.0584L19.146 12.5259C19.146 12.5259 18.5385 12.3741 18.3866 12.1453C18.2348 11.9166 18.006 13.1841 18.006 13.1841C18.006 13.1841 18.2348 13.7165 19.7535 13.7165C21.2741 13.7165 23.7041 12.1472 23.7041 12.1472Z" fill="#152D40"/>
<path d="M19.4521 13.6154C19.4521 13.6154 17.6297 29.2491 17.7815 32.7816L17.249 32.8191C17.249 32.8191 17.8565 17.5135 19.1484 13.6023L19.4521 13.6154Z" fill="#B2BFE1"/>
<path d="M17.3183 35.4458C18.0776 36.7621 27.5463 37.3208 30.6344 35.1946C31.9526 34.2871 32.4869 31.6771 32.6163 28.7446C32.7888 24.8015 32.2282 20.2771 31.8494 18.5353C31.1913 15.4978 28.7107 14.384 28.7107 14.384C28.7107 14.384 28.5251 14.5003 28.2607 14.7778C27.6101 15.4584 26.4813 17.1009 26.4813 20.309C26.4813 24.8146 26.9876 26.8415 26.6332 27.7527C26.2788 28.664 25.6207 28.7146 25.722 29.6258C25.8232 30.5371 20.052 29.4233 18.0251 30.7902C16.002 32.1552 16.5589 34.1314 17.3183 35.4458Z" fill="#152D40"/>
<path d="M19.2491 34.7821C19.2491 34.7821 26.7922 36.1996 29.6797 34.5289C31.0915 33.7114 32.044 31.3696 32.6178 28.7446C32.7903 24.8015 32.2297 20.2771 31.8509 18.5353C31.1928 15.4978 28.7122 14.384 28.7122 14.384C28.7122 14.384 28.5265 14.5003 28.2622 14.7778C28.6334 14.969 29.9628 15.8934 30.9959 19.6434C32.2109 24.0496 30.8947 31.9471 29.4772 33.0121C28.0597 34.0752 19.401 33.3664 19.401 33.3664L19.2491 34.7821Z" fill="#2867A4"/>
<path d="M3.24316 23.2162L3.37618 22.7797C3.4932 22.3967 3.85185 22.1279 4.26606 22.1125L7.21771 22.0008C7.55194 21.9878 7.86933 22.1425 8.05707 22.4089L8.51338 23.0575L3.24316 23.2162Z" fill="#004556"/>
<path d="M0 23.0003L11.6101 22.8108L14.9998 36.5944L3.62237 35.1205L0 23.0003Z" fill="#4D7D88"/>
<path d="M17.9311 31.8514C17.9311 31.8514 16.8492 31.5101 16.6392 31.1876C16.4311 30.8651 15.6905 30.2201 15.0249 29.9914C14.3611 29.7626 13.8286 29.4401 13.448 29.6314C13.0674 29.8208 13.7518 30.3158 14.2074 30.4095C14.663 30.5051 15.1749 30.9608 15.0624 30.9983C14.948 31.0358 13.7893 30.5801 12.9736 30.4864C12.158 30.3908 11.5299 30.297 10.8474 30.4864C10.163 30.6758 10.5061 31.1314 10.8661 31.1895C11.2261 31.2458 11.6443 31.227 11.9293 31.2664C12.2143 31.3039 12.6324 31.5514 12.6324 31.5514C12.6324 31.5514 11.6836 31.4745 10.9993 31.5514C10.3149 31.6283 10.0318 31.7033 10.0318 31.9508C10.0318 32.1983 10.6768 32.292 11.228 32.292C11.7793 32.292 12.6136 32.5001 12.6136 32.5001C12.6136 32.5001 11.4736 32.4814 10.943 32.6708C10.4105 32.8601 10.5061 33.0889 10.943 33.1826C11.3799 33.2783 11.8355 33.1264 12.368 33.2595C12.9005 33.3926 12.5968 33.4301 12.2724 33.4301C11.9499 33.4301 11.4174 33.5445 11.3236 33.6964C11.228 33.8483 11.6274 34.0958 12.653 34.0189C13.6786 33.942 14.5899 34.2476 15.2742 34.4183C15.9586 34.5889 17.0217 34.722 17.723 34.5514C18.4261 34.377 18.9567 32.9708 17.9311 31.8514Z" fill="#E1964F"/>
</svg>
