<svg width="24" height="24" viewBox="0 0 24 24" fill="none" xmlns="http://www.w3.org/2000/svg">
<path d="M19.4356 5.77448C21.9292 9.49448 21.9365 14.4036 19.4356 18.1317" stroke="white" stroke-width="1.5" stroke-linecap="round" stroke-linejoin="round"/>
<path d="M16.9889 8.21719C18.2707 10.5399 18.2707 13.3745 16.9889 15.689" stroke="white" stroke-width="1.5" stroke-linecap="round" stroke-linejoin="round"/>
<path fill-rule="evenodd" clip-rule="evenodd" d="M2.68225 11.9529C2.67952 13.1993 2.68225 14.6611 3.71134 15.5347C4.74134 16.4093 5.5577 16.0484 6.88952 16.4866C8.22225 16.9256 10.0886 19.6329 12.1504 18.4102C13.265 17.6184 13.7904 16.1238 13.7904 11.9529C13.7904 7.78201 13.2886 6.30383 12.1504 5.49565C10.0886 4.27383 8.22225 6.9811 6.88952 7.41929C5.5577 7.85838 4.74134 7.49747 3.71134 8.3711C2.68225 9.24474 2.67952 10.7066 2.68225 11.9529Z" stroke="white" stroke-width="1.5" stroke-linecap="round" stroke-linejoin="round"/>
</svg>
