<svg width="24" height="24" viewBox="0 0 24 24" fill="none" xmlns="http://www.w3.org/2000/svg">
<path d="M11.9611 16.5168V13.8888" stroke="white" stroke-width="1.5" stroke-linecap="round" stroke-linejoin="round"/>
<path d="M21.0895 11.4777L21.0605 11.4987C18.6385 12.9907 15.4405 13.8917 11.9565 13.8917C8.4725 13.8917 5.2835 12.9907 2.8625 11.4987L2.8325 11.4777" stroke="white" stroke-width="1.5" stroke-linecap="round" stroke-linejoin="round"/>
<path fill-rule="evenodd" clip-rule="evenodd" d="M2.7502 13.3507C2.7502 7.19867 5.0532 5.14767 11.9612 5.14767C18.8702 5.14767 21.1722 7.19867 21.1722 13.3507C21.1722 19.5027 18.8702 21.5537 11.9612 21.5537C5.0532 21.5537 2.7502 19.5027 2.7502 13.3507Z" stroke="white" stroke-width="1.5" stroke-linecap="round" stroke-linejoin="round"/>
<path d="M15.2238 5.36929V4.73929C15.2238 3.47529 14.3008 2.45029 13.1638 2.45029H10.7588C9.6218 2.45029 8.6988 3.47529 8.6988 4.73929V5.36929" stroke="white" stroke-width="1.5" stroke-linecap="round" stroke-linejoin="round"/>
</svg>
